# xmcd
#
# Track frame offsets:
#	150
#	11175
#	23850
#	35775
#	48375
#	59850
#	69150
#	80550
#	92025
#	104550
#	118500
#	132975
#	142275
#	153750
#	165675
#	175950
#
# Disc length: 2479 seconds
#
# Revision: 2
# Processed by: cddbd v1.4PL0 Copyright (c) Steve Scherf et al.
# Submitted via: MusicWizard 6.0.0
#
DISCID=e709ad10
DTITLE=Various Artist - SOMEWHERE IN THE COUNTRY CD 1
DYEAR=1992
DGENRE=Country
TTITLE0=ROGER MILLER - KING OF THE ROAD
TTITLE1=BILLIE JOE SPEARS - YOU'VE GOT THE POWER
TTITLE2=JACK GREENE - THER GOES MY EVERYTHING
TTITLE3=LEROY VAN DYKE - THE AUCTIONEER
TTITLE4=DON GIBSON - I CAN'T STOP LOVING YOU
TTITLE5=CARL MANN - SOUTH OF THE BORDER
TTITLE6=HENSON CARGILL - SKIP A ROPE
TTITLE7=KENNY ROGERS - POEM FOR MY LITTLE LADY
TTITLE8=JACK and MISTY - TENNESSEE BIRDWALK
TTITLE9=ROY DRUSKY - VAYA CON DIOS
TTITLE10=JEANNIE C. RILEY - HARPER VALLEY P.T.A.
TTITLE11=JOHNNY CASH - LUTHER'S BOOGIE
TTITLE12=SAMMI SMITH - HELP ME MAKE IT THROUGH THE NIGHT
TTITLE13=JIMMY C. NEWMAN - JAMBALAYA
TTITLE14=CHARLY WALKER - PICK ME UP ON YOUR WAY DOWN
TTITLE15=BOB LUMAN - WHEN YOU SAY LOVE
EXTD=
EXTT0=
EXTT1=
EXTT2=
EXTT3=
EXTT4=
EXTT5=
EXTT6=
EXTT7=
EXTT8=
EXTT9=
EXTT10=
EXTT11=
EXTT12=
EXTT13=
EXTT14=
EXTT15=
PLAYORDER=
